<?xml version="1.0" encoding="iso-8859-1"?>
<!-- Generator: Adobe Illustrator 19.0.0, SVG Export Plug-In . SVG Version: 6.00 Build 0)  -->
<svg version="1.1" id="Layer_1" xmlns="http://www.w3.org/2000/svg" xmlns:xlink="http://www.w3.org/1999/xlink" x="0px" y="0px"
	 viewBox="0 0 502 502" style="enable-background:new 0 0 502 502;" xml:space="preserve">
<g>
	<g>
		<rect x="72" y="10" style="fill:#FFF9E6;" width="358" height="482"/>
		<path d="M430,502H72c-5.522,0-10-4.478-10-10V10c0-5.522,4.478-10,10-10h358c5.522,0,10,4.478,10,10v482
			C440,497.522,435.522,502,430,502z M82,482h338V20H82V482z"/>
	</g>
	<g>
		<rect x="112" y="50" style="fill:#5CC9C1;" width="278" height="133"/>
		<path d="M390,193H112c-5.522,0-10-4.478-10-10V50c0-5.522,4.478-10,10-10h278c5.522,0,10,4.478,10,10v133
			C400,188.522,395.522,193,390,193z M122,173h258V60H122V173z"/>
	</g>
	<g>
		<g>
			<g>
				<path style="fill:#5CC9C1;" d="M204.126,272.604h-52.324c-12.041,0-21.802-9.761-21.802-21.802S139.761,229,151.802,229h52.324
					c12.041,0,21.802,9.761,21.802,21.802C225.928,262.843,216.167,272.604,204.126,272.604z"/>
				<path d="M204.126,282.604h-52.324c-17.535,0-31.802-14.267-31.802-31.802S134.267,219,151.802,219h52.324
					c17.535,0,31.802,14.267,31.802,31.802S221.661,282.604,204.126,282.604z M151.802,239c-6.508,0-11.802,5.294-11.802,11.802
					s5.294,11.802,11.802,11.802h52.324c6.508,0,11.802-5.294,11.802-11.802S210.634,239,204.126,239H151.802z"/>
			</g>
		</g>
		<g>
			<g>
				<path style="fill:#5CC9C1;" d="M350.198,272.604h-52.324c-12.041,0-21.802-9.761-21.802-21.802S285.833,229,297.874,229h52.324
					c12.041,0,21.802,9.761,21.802,21.802C372,262.843,362.239,272.604,350.198,272.604z"/>
				<path d="M350.198,282.604h-52.324c-17.535,0-31.802-14.267-31.802-31.802S280.339,219,297.874,219h52.324
					C367.733,219,382,233.267,382,250.802S367.733,282.604,350.198,282.604z M297.874,239c-6.508,0-11.802,5.294-11.802,11.802
					s5.294,11.802,11.802,11.802h52.324c6.508,0,11.802-5.294,11.802-11.802S356.706,239,350.198,239H297.874z"/>
			</g>
		</g>
		<g>
			<g>
				<path style="fill:#5CC9C1;" d="M204.126,359.811h-52.324c-12.041,0-21.802-9.761-21.802-21.802s9.761-21.802,21.802-21.802
					h52.324c12.041,0,21.802,9.761,21.802,21.802S216.167,359.811,204.126,359.811z"/>
				<path d="M204.126,369.811h-52.324c-17.535,0-31.802-14.267-31.802-31.802s14.267-31.802,31.802-31.802h52.324
					c17.535,0,31.802,14.267,31.802,31.802S221.661,369.811,204.126,369.811z M151.802,326.207c-6.508,0-11.802,5.294-11.802,11.802
					s5.294,11.802,11.802,11.802h52.324c6.508,0,11.802-5.294,11.802-11.802s-5.294-11.802-11.802-11.802H151.802z"/>
			</g>
		</g>
		<g>
			<g>
				<path style="fill:#5CC9C1;" d="M350.198,359.811h-52.324c-12.041,0-21.802-9.761-21.802-21.802s9.761-21.802,21.802-21.802
					h52.324c12.041,0,21.802,9.761,21.802,21.802S362.239,359.811,350.198,359.811z"/>
				<path d="M350.198,369.811h-52.324c-17.535,0-31.802-14.267-31.802-31.802s14.267-31.802,31.802-31.802h52.324
					c17.535,0,31.802,14.267,31.802,31.802S367.733,369.811,350.198,369.811z M297.874,326.207c-6.508,0-11.802,5.294-11.802,11.802
					s5.294,11.802,11.802,11.802h52.324c6.508,0,11.802-5.294,11.802-11.802s-5.294-11.802-11.802-11.802H297.874z"/>
			</g>
		</g>
		<g>
			<g>
				<path style="fill:#5CC9C1;" d="M204.126,447.018h-52.324c-12.041,0-21.802-9.761-21.802-21.802s9.761-21.802,21.802-21.802
					h52.324c12.041,0,21.802,9.761,21.802,21.802S216.167,447.018,204.126,447.018z"/>
				<path d="M204.126,457.018h-52.324c-17.535,0-31.802-14.267-31.802-31.802s14.267-31.802,31.802-31.802h52.324
					c17.535,0,31.802,14.267,31.802,31.802S221.661,457.018,204.126,457.018z M151.802,413.414c-6.508,0-11.802,5.294-11.802,11.802
					s5.294,11.802,11.802,11.802h52.324c6.508,0,11.802-5.294,11.802-11.802s-5.294-11.802-11.802-11.802H151.802z"/>
			</g>
		</g>
		<g>
			<g>
				<path style="fill:#5CC9C1;" d="M350.198,447.018h-52.324c-12.041,0-21.802-9.761-21.802-21.802s9.761-21.802,21.802-21.802
					h52.324c12.041,0,21.802,9.761,21.802,21.802S362.239,447.018,350.198,447.018z"/>
				<path d="M350.198,457.018h-52.324c-17.535,0-31.802-14.267-31.802-31.802s14.267-31.802,31.802-31.802h52.324
					c17.535,0,31.802,14.267,31.802,31.802S367.733,457.018,350.198,457.018z M297.874,413.414c-6.508,0-11.802,5.294-11.802,11.802
					s5.294,11.802,11.802,11.802h52.324c6.508,0,11.802-5.294,11.802-11.802s-5.294-11.802-11.802-11.802H297.874z"/>
			</g>
		</g>
	</g>
	<g>
		<path d="M292,96H148c-5.522,0-10-4.478-10-10s4.478-10,10-10h144c5.522,0,10,4.478,10,10S297.522,96,292,96z"/>
	</g>
	<g>
		<path d="M354,96h-24c-5.522,0-10-4.478-10-10s4.478-10,10-10h24c5.522,0,10,4.478,10,10S359.522,96,354,96z"/>
	</g>
</g>
<g>
</g>
<g>
</g>
<g>
</g>
<g>
</g>
<g>
</g>
<g>
</g>
<g>
</g>
<g>
</g>
<g>
</g>
<g>
</g>
<g>
</g>
<g>
</g>
<g>
</g>
<g>
</g>
<g>
</g>
</svg>
